<svg id="Layer_1" enable-background="new 0 0 512 512" height="512" viewBox="0 0 512 512" width="512" xmlns="http://www.w3.org/2000/svg"><g><path d="m406 52.5h-30v452h30c16.5 0 30-13.5 30-30v-392c0-16.5-13.5-30-30-30z" fill="#1b74d6"/><path d="m406 82.5c0-16.5-13.5-30-30-30h-86.621l-33.709 30-33.706-30h-115.964c-16.5 0-30 13.5-30 30v392c0 16.5 13.5 30 30 30h270c16.5 0 30-13.5 30-30l-150-196z" fill="#1e8aff"/><path d="m376 82.5-90 196 90 196h30v-392z" fill="#fff7e8"/><path d="m106 82.5v392h270v-392h-30l-90.33 15-89.67-15z" fill="#fff"/><path d="m376 112.5h-29.19l-30-30h29.19c16.57 0 30 13.43 30 30z" fill="#a6b0bd"/><path d="m346.81 112.5h-210.81c0-16.57 13.43-30 30-30h28.54l19.44-46.95c6.7-16.45 22.84-28.05 41.69-28.05 18.86 0 35 11.61 41.69 28.06l19.45 46.94c16.56 0 30 13.43 30 30zm-76.14-60c0-8.28-6.71-15-15-15-8.28 0-15 6.72-15 15s6.72 15 15 15c8.29 0 15-6.72 15-15z" fill="#c0c8d2"/><path d="m287 398.5h-30l30 45h30v-15c0-16.5-13.5-30-30-30z" fill="#ffb739"/><path d="m257 398.5h-32c-16.5 0-30 13.5-30 30v15h92v-15c0-16.5-13.5-30-30-30z" fill="#ffd17e"/><path d="m287 233.5h-30l30 45h30v-15c0-16.5-13.5-30-30-30z" fill="#ffb739"/><g fill="#ffd17e"><path d="m257 233.5h-32c-16.5 0-30 13.5-30 30v15h92v-15c0-16.5-13.5-30-30-30z"/><circle cx="255.758" cy="173.5" r="30"/><circle cx="255.758" cy="338.5" r="30"/></g><path d="m406 45h-96.611l-5.079-12.261c-8.085-19.888-27.178-32.739-48.639-32.739-21.453 0-40.543 12.845-48.616 32.682l-5.103 12.318h-95.952c-20.678 0-37.5 16.822-37.5 37.5v392c0 20.678 16.822 37.5 37.5 37.5h300c20.678 0 37.5-16.822 37.5-37.5v-392c0-20.678-16.822-37.5-37.5-37.5zm-185.07-6.621c5.781-14.202 19.417-23.379 34.741-23.379 15.329 0 28.968 9.181 34.764 23.435l19.442 46.936c1.16 2.803 3.896 4.63 6.929 4.63h29.194c9.778 0 18.119 6.27 21.215 15h-222.43c3.096-8.73 11.437-15 21.215-15h28.537c3.033 0 5.769-1.827 6.929-4.63zm207.57 436.121c0 12.406-10.094 22.5-22.5 22.5h-300c-12.406 0-22.5-10.094-22.5-22.5v-392c0-12.406 10.094-22.5 22.5-22.5h89.739l-6.213 15h-83.526c-4.143 0-7.5 3.357-7.5 7.5v196c0 4.143 3.357 7.5 7.5 7.5s7.5-3.357 7.5-7.5v-188.5h22.521c-4.719 6.272-7.521 14.064-7.521 22.5 0 4.143 3.357 7.5 7.5 7.5h240c4.143 0 7.5-3.357 7.5-7.5 0-8.436-2.801-16.228-7.521-22.5h22.521v377h-285v-158.5c0-4.143-3.357-7.5-7.5-7.5s-7.5 3.357-7.5 7.5v166c0 4.143 3.357 7.5 7.5 7.5h300c4.143 0 7.5-3.357 7.5-7.5v-392c0-4.143-3.357-7.5-7.5-7.5h-84.184l-6.213-15h90.397c12.406 0 22.5 10.094 22.5 22.5z"/><path d="m255.671 75c12.406 0 22.5-10.094 22.5-22.5s-10.094-22.5-22.5-22.5-22.5 10.094-22.5 22.5 10.094 22.5 22.5 22.5zm0-30c4.136 0 7.5 3.364 7.5 7.5s-3.364 7.5-7.5 7.5-7.5-3.364-7.5-7.5 3.364-7.5 7.5-7.5z"/><path d="m195 451h122c4.143 0 7.5-3.357 7.5-7.5v-15c0-20.678-16.822-37.5-37.5-37.5h-62c-20.678 0-37.5 16.822-37.5 37.5v15c0 4.143 3.357 7.5 7.5 7.5zm7.5-22.5c0-12.406 10.094-22.5 22.5-22.5h62c12.406 0 22.5 10.094 22.5 22.5v7.5h-107z"/><path d="m195 286h122c4.143 0 7.5-3.357 7.5-7.5v-15c0-20.678-16.822-37.5-37.5-37.5h-62c-20.678 0-37.5 16.822-37.5 37.5v15c0 4.143 3.357 7.5 7.5 7.5zm7.5-22.5c0-12.406 10.094-22.5 22.5-22.5h62c12.406 0 22.5 10.094 22.5 22.5v7.5h-107z"/><path d="m255.758 211c20.678 0 37.5-16.822 37.5-37.5s-16.822-37.5-37.5-37.5-37.5 16.822-37.5 37.5 16.822 37.5 37.5 37.5zm0-60c12.406 0 22.5 10.094 22.5 22.5s-10.094 22.5-22.5 22.5-22.5-10.094-22.5-22.5 10.094-22.5 22.5-22.5z"/><path d="m218.258 338.5c0 20.678 16.822 37.5 37.5 37.5s37.5-16.822 37.5-37.5-16.822-37.5-37.5-37.5-37.5 16.822-37.5 37.5zm60 0c0 12.406-10.094 22.5-22.5 22.5s-22.5-10.094-22.5-22.5 10.094-22.5 22.5-22.5 22.5 10.094 22.5 22.5z"/></g></svg>